<?xml version="1.0" standalone="no"?>
<!DOCTYPE svg PUBLIC "-//w3c//DTD SVG 1.1//EN" "http://www.w3.org/Graphics/SVG/1.1/DTD/svg11.dtd">
<svg width="420" height="420" version="1.1" xmlns="http://www.w3.org/2000/svg">
	<title>Numbrix G</title>

  	<g fill="none" stroke="#000000" stroke-width="2" stroke-linecap="round" stroke-linejoin="round">
  		<line x1="50" y1="50" x2="50" y2="400" />
  		<line x1="50" y1="50" x2="400" y2="50" />
  		<line x1="400" y1="50" x2="400" y2="400" />
  		<line x1="50" y1="400" x2="400" y2="400" />
  		<line x1="100" y1="50" x2="100" y2="400" />
  		<line x1="150" y1="50" x2="150" y2="400" />
  		<line x1="200" y1="50" x2="200" y2="400" />
  		<line x1="250" y1="50" x2="250" y2="400" />
  		<line x1="50" y1="100" x2="400" y2="100" />
  		<line x1="50" y1="150" x2="400" y2="150" />
  		<line x1="50" y1="200" x2="400" y2="200" />
 		<line x1="50" y1="250" x2="400" y2="250" />
    	<line x1="50" y1="300" x2="400" y2="300" />
    	<line x1="50" y1="350" x2="400" y2="350" />
    	<line x1="300" y1="50" x2="300" y2="400" />
    	<line x1="350" y1="50" x2="350" y2="400" />
 	</g>
  	
<g fill="black" stroke-width="1" text-anchor="middle" style="font-family:Arial" font-size="28">
		<text x="225" y="85">2</text>
		<text x="125" y="135">47</text>
		<text x="225" y="135">41</text>
    	<text x="325" y="135">35</text>
		<text x="75" y="235">8</text>
    	<text x="125" y="235">45</text>
    	<text x="225" y="235">43</text>
   		<text x="325" y="235">37</text>
  		<text x="375" y="235">30</text>
		<text x="225" y="335">23</text>
    	<text x="125" y="335">11</text>
    	<text x="325" y="335">21</text>
    	<text x="225" y="385">16</text>
		<text x="75" y="85">5</text>
		<text x="125" y="85">4</text>
		<text x="175" y="85">3</text>
		<text x="275" y="85">1</text>
		<text x="325" y="85">34</text>
		<text x="375" y="85">33</text>
		<text x="75" y="135">6</text>
		<text x="175" y="135">48</text>
		<text x="275" y="135">40</text>
		<text x="375" y="135">32</text>
		<text x="75" y="185">7</text>
		<text x="125" y="185">46</text>
		<text x="175" y="185">49</text>
		<text x="225" y="185">42</text>
		<text x="275" y="185">39</text>
		<text x="325" y="185">36</text>
		<text x="375" y="185">31</text>
		<text x="175" y="235">44</text>
		<text x="275" y="235">38</text>
		<text x="75" y="285">9</text>
		<text x="125" y="285">10</text>
		<text x="175" y="285">25</text>
		<text x="225" y="285">26</text>
		<text x="275" y="285">27</text>
		<text x="325" y="285">28</text>
		<text x="375" y="285">29</text>
		<text x="75" y="335">12</text>
		<text x="175" y="335">24</text>
		<text x="275" y="335">22</text>
		<text x="375" y="335">20</text>
		<text x="75" y="385">13</text>
		<text x="125" y="385">14</text>
		<text x="175" y="385">15</text>
		<text x="275" y="385">17</text>
		<text x="325" y="385">18</text>
		<text x="375" y="385">19</text>

	 </g>
</svg>