<?xml version="1.0" standalone="no"?>
<!DOCTYPE svg PUBLIC "-//w3c//DTD SVG 1.1//EN" "http://www.w3.org/Graphics/SVG/1.1/DTD/svg11.dtd">
<svg width="600" height="600" version="1.1" xmlns="http://www.w3.org/2000/svg">
	<title>Numbrix T</title>

    <g fill="none" stroke="#000000" stroke-width="2" stroke-linecap="round" stroke-linejoin="round">
        <line x1="50" y1="50" x2="50" y2="550" />
        <line x1="100" y1="50" x2="100" y2="550" />
        <line x1="150" y1="50" x2="150" y2="550" />
        <line x1="200" y1="50" x2="200" y2="550" />
        <line x1="250" y1="50" x2="250" y2="550" />
        <line x1="300" y1="50" x2="300" y2="550" />
        <line x1="350" y1="50" x2="350" y2="550" />
        <line x1="400" y1="50" x2="400" y2="550" />
        <line x1="450" y1="50" x2="450" y2="550" />
        <line x1="500" y1="50" x2="500" y2="550" />
        <line x1="550" y1="50" x2="550" y2="550" />
        <line x1="50" y1="50" x2="550" y2="50" />
        <line x1="50" y1="100" x2="550" y2="100" />
        <line x1="50" y1="150" x2="550" y2="150" />
        <line x1="50" y1="200" x2="550" y2="200" />
        <line x1="50" y1="250" x2="550" y2="250" />
        <line x1="50" y1="300" x2="550" y2="300" />
        <line x1="50" y1="350" x2="550" y2="350" />
        <line x1="50" y1="400" x2="550" y2="400" />
        <line x1="50" y1="450" x2="550" y2="450" />
        <line x1="50" y1="500" x2="550" y2="500" />
        <line x1="50" y1="550" x2="550" y2="550" />
  </g>
  <g fill="black" stroke-width="1" text-anchor="middle" style="font-family:Arial" font-size="28">
		<text x="225" y="85">32</text>
        <text x="375" y="85">29</text>
        <text x="125" y="135">39</text>
        <text x="475" y="135">20</text>
        <text x="225" y="185">36</text>
        <text x="375" y="185">13</text>
        <text x="75" y="235">44</text>
        <text x="175" y="235">46</text>
        <text x="225" y="235">47</text>
        <text x="375" y="235">10</text>
        <text x="425" y="235">11</text>
        <text x="525" y="235">23</text>
        <text x="75" y="385">99</text>
        <text x="175" y="385">51</text>
        <text x="225" y="385">4</text>
        <text x="375" y="385">69</text>
        <text x="425" y="385">70</text>
        <text x="525" y="385">72</text>
        <text x="225" y="435">1</text>
        <text x="375" y="435">76</text>
        <text x="125" y="485">92</text>
        <text x="475" y="485">79</text>
        <text x="225" y="535">87</text>
        <text x="375" y="535">84</text>
    </g>
</svg>