<?xml version="1.0" standalone="no"?>
<!DOCTYPE svg PUBLIC "-//w3c//DTD SVG 1.1//EN" "http://www.w3.org/Graphics/SVG/1.1/DTD/svg11.dtd">
<svg width="600" height="600" version="1.1" xmlns="http://www.w3.org/2000/svg">
	<title>Numbrix T</title>

    <g fill="none" stroke="#000000" stroke-width="2" stroke-linecap="round" stroke-linejoin="round">
        <line x1="50" y1="50" x2="50" y2="550" />
        <line x1="100" y1="50" x2="100" y2="550" />
        <line x1="150" y1="50" x2="150" y2="550" />
        <line x1="200" y1="50" x2="200" y2="550" />
        <line x1="250" y1="50" x2="250" y2="550" />
        <line x1="300" y1="50" x2="300" y2="550" />
        <line x1="350" y1="50" x2="350" y2="550" />
        <line x1="400" y1="50" x2="400" y2="550" />
        <line x1="450" y1="50" x2="450" y2="550" />
        <line x1="500" y1="50" x2="500" y2="550" />
        <line x1="550" y1="50" x2="550" y2="550" />
        <line x1="50" y1="50" x2="550" y2="50" />
        <line x1="50" y1="100" x2="550" y2="100" />
        <line x1="50" y1="150" x2="550" y2="150" />
        <line x1="50" y1="200" x2="550" y2="200" />
        <line x1="50" y1="250" x2="550" y2="250" />
        <line x1="50" y1="300" x2="550" y2="300" />
        <line x1="50" y1="350" x2="550" y2="350" />
        <line x1="50" y1="400" x2="550" y2="400" />
        <line x1="50" y1="450" x2="550" y2="450" />
        <line x1="50" y1="500" x2="550" y2="500" />
        <line x1="50" y1="550" x2="550" y2="550" />
  </g>
  
<g fill="black" stroke-width="1" text-anchor="middle" style="font-family:Arial" font-size="28">
		<text x="225" y="85">32</text>
        <text x="375" y="85">29</text>
        <text x="125" y="135">39</text>
        <text x="475" y="135">20</text>
        <text x="225" y="185">36</text>
        <text x="375" y="185">13</text>
        <text x="75" y="235">44</text>
        <text x="175" y="235">46</text>
        <text x="225" y="235">47</text>
        <text x="375" y="235">10</text>
        <text x="425" y="235">11</text>
        <text x="525" y="235">23</text>
        <text x="75" y="385">99</text>
        <text x="175" y="385">51</text>
        <text x="225" y="385">4</text>
        <text x="375" y="385">69</text>
        <text x="425" y="385">70</text>
        <text x="525" y="385">72</text>
        <text x="225" y="435">1</text>
        <text x="375" y="435">76</text>
        <text x="125" y="485">92</text>
        <text x="475" y="485">79</text>
        <text x="225" y="535">87</text>
        <text x="375" y="535">84</text>
		<text x="75" y="85">41</text>
		<text x="125" y="85">40</text>
		<text x="175" y="85">33</text>
		<text x="275" y="85">31</text>
		<text x="325" y="85">30</text>
		<text x="425" y="85">28</text>
		<text x="475" y="85">27</text>
		<text x="525" y="85">26</text>
		<text x="75" y="135">42</text>
		<text x="175" y="135">34</text>
		<text x="225" y="135">35</text>
		<text x="275" y="135">16</text>
		<text x="325" y="135">17</text>
		<text x="375" y="135">18</text>
		<text x="425" y="135">19</text>
		<text x="525" y="135">25</text>
		<text x="75" y="185">43</text>
		<text x="125" y="185">38</text>
		<text x="175" y="185">37</text>
		<text x="275" y="185">15</text>
		<text x="325" y="185">14</text>
		<text x="425" y="185">12</text>
		<text x="475" y="185">21</text>
		<text x="525" y="185">24</text>
		<text x="125" y="235">45</text>
		<text x="275" y="235">8</text>
		<text x="325" y="235">9</text>
		<text x="475" y="235">22</text>
		<text x="75" y="285">97</text>
		<text x="125" y="285">96</text>
		<text x="175" y="285">49</text>
		<text x="225" y="285">48</text>
		<text x="275" y="285">7</text>
		<text x="325" y="285">60</text>
		<text x="375" y="285">61</text>
		<text x="425" y="285">62</text>
		<text x="475" y="285">63</text>
		<text x="525" y="285">64</text>
		<text x="75" y="335">98</text>
		<text x="125" y="335">95</text>
		<text x="175" y="335">50</text>
		<text x="225" y="335">5</text>
		<text x="275" y="335">6</text>
		<text x="325" y="335">59</text>
		<text x="375" y="335">68</text>
		<text x="425" y="335">67</text>
		<text x="475" y="335">66</text>
		<text x="525" y="335">65</text>
		<text x="125" y="385">94</text>
		<text x="275" y="385">3</text>
		<text x="325" y="385">58</text>
		<text x="475" y="385">71</text>
		<text x="75" y="435">100</text>
		<text x="125" y="435">93</text>
		<text x="175" y="435">52</text>
		<text x="275" y="435">2</text>
		<text x="325" y="435">57</text>
		<text x="425" y="435">75</text>
		<text x="475" y="435">74</text>
		<text x="525" y="435">73</text>
		<text x="75" y="485">91</text>
		<text x="175" y="485">53</text>
		<text x="225" y="485">54</text>
		<text x="275" y="485">55</text>
		<text x="325" y="485">56</text>
		<text x="375" y="485">77</text>
		<text x="425" y="485">78</text>
		<text x="525" y="485">80</text>
		<text x="75" y="535">90</text>
		<text x="125" y="535">89</text>
		<text x="175" y="535">88</text>
		<text x="275" y="535">86</text>
		<text x="325" y="535">85</text>
		<text x="425" y="535">83</text>
		<text x="475" y="535">82</text>
		<text x="525" y="535">81</text>

     </g>
</svg>